<svg width="25" height="24" viewBox="0 0 25 24" fill="none" xmlns="http://www.w3.org/2000/svg">
    <path d="M21.3426 17.1447C21.0099 17.9133 20.6161 18.6208 20.1598 19.2713C19.5378 20.158 19.0286 20.7719 18.6361 21.1127C18.0277 21.6722 17.3759 21.9587 16.6779 21.975C16.1768 21.975 15.5725 21.8324 14.8691 21.5432C14.1633 21.2553 13.5148 21.1127 12.9217 21.1127C12.2998 21.1127 11.6327 21.2553 10.9193 21.5432C10.2047 21.8324 9.62904 21.9832 9.18892 21.9981C8.51957 22.0266 7.85239 21.7319 7.18644 21.1127C6.76139 20.742 6.22974 20.1064 5.59285 19.2061C4.90951 18.2446 4.34772 17.1297 3.9076 15.8587C3.43624 14.4857 3.19995 13.1563 3.19995 11.8692C3.19995 10.3948 3.51853 9.12321 4.15665 8.0576C4.65815 7.20166 5.32533 6.52647 6.16035 6.03081C6.99537 5.53514 7.89761 5.28256 8.86925 5.2664C9.4009 5.2664 10.0981 5.43085 10.9645 5.75405C11.8284 6.07834 12.3832 6.24279 12.6264 6.24279C12.8082 6.24279 13.4245 6.0505 14.4692 5.66714C15.4571 5.31162 16.2909 5.16441 16.974 5.2224C18.8249 5.37178 20.2155 6.10142 21.1402 7.41595C19.4849 8.41896 18.666 9.82379 18.6823 11.626C18.6972 13.0297 19.2065 14.1979 20.2073 15.1254C20.6609 15.5558 21.1674 15.8885 21.731 16.1248C21.6087 16.4793 21.4797 16.8188 21.3426 17.1447ZM17.0975 0.440125C17.0975 1.54038 16.6956 2.56768 15.8944 3.51854C14.9275 4.64892 13.758 5.30211 12.4898 5.19904C12.4736 5.06705 12.4642 4.92812 12.4642 4.78214C12.4642 3.7259 12.924 2.59552 13.7406 1.67127C14.1483 1.20331 14.6667 0.814209 15.2955 0.503814C15.9229 0.19805 16.5163 0.0289566 17.0744 0C17.0907 0.147086 17.0975 0.294182 17.0975 0.440111V0.440125Z" fill="black"/>
</svg>
