<svg width="72" height="72" viewBox="0 0 72 72" fill="none" xmlns="http://www.w3.org/2000/svg">
    <path d="M46.3657 58.5623C30.1043 64.1375 24.9705 59.3346 14.952 49.9619C4.93352 40.5892 7.7973 22.2185 17.1362 12.2362C26.4751 2.25381 48.575 17.6965 58.5935 27.0692C70.9288 38.6093 58.385 54.4414 46.3657 58.5623Z" fill="#DBE3FC"/>
    <path d="M11.3406 35.3596C12.4519 35.4124 11.7377 37.4733 9.80563 38.6394C8.85714 39.2119 7.62211 38.9037 7.04711 37.951C6.47211 36.9983 5.43555 35.982 6.38403 35.4095C8.31608 34.2434 8.62958 35.2309 11.3406 35.3596Z" fill="#3246AB"/>
    <path d="M56.6316 28.0812C56.6316 37.2163 49.2262 44.6217 40.0911 44.6217C30.956 44.6217 23.5505 37.2163 23.5505 28.0812C23.5505 18.9461 30.956 11.5406 40.0911 11.5406C49.2262 11.5406 56.6316 18.9461 56.6316 28.0812Z" fill="#90A5EE"/>
    <path d="M31.9521 24.6531C30.6918 24.233 30.3768 26.2284 30.3768 27.2786L37.7281 36.9928C37.9032 36.7303 38.5158 36.2052 39.566 36.2052C40.6161 36.2052 41.7539 36.3802 42.1914 36.4677C44.9044 31.3918 50.2254 20.9249 49.8053 19.6647C49.3853 18.4044 47.705 18.9645 46.9173 19.4021L39.566 32.5295C37.5531 30.0791 33.2123 25.0731 31.9521 24.6531Z" fill="#F3F6FE"/>
    <path d="M57.6179 28.3829C57.4834 23.7369 55.55 19.3186 52.1735 15.9422C48.7971 12.5658 44.3789 10.6323 39.7329 10.4979C35.0694 10.3633 30.736 12.0546 27.5293 15.2613C23.9286 18.8621 22.2406 23.9263 22.898 29.1557C22.9509 29.5772 23.3353 29.876 23.7571 29.823C24.1786 29.77 24.4773 29.3854 24.4244 28.9638C23.8266 24.2093 25.3549 19.6114 28.6171 16.3492C31.5212 13.445 35.4514 11.9132 39.6885 12.0357C43.9405 12.1586 47.9882 13.9324 51.0858 17.0302C54.1835 20.1279 55.9573 24.1755 56.0803 28.4275C56.2029 32.6628 54.671 36.5947 51.7668 39.4988C49.2432 42.0224 45.9545 43.5048 42.3635 43.7727L43.1352 43.0008C44.0067 42.1294 44.4873 40.9698 44.4887 39.735C44.4887 38.5004 44.0081 37.34 43.1352 36.4672C43.0762 36.4082 43.0157 36.3514 42.9543 36.2962L50.3378 22.0882C50.6857 21.4198 50.7521 20.656 50.5251 19.9376C50.2981 19.2196 49.8051 18.6326 49.1362 18.2845C47.7566 17.568 46.0505 18.1074 45.3332 19.4872L39.229 31.232L34.2659 25.1443C33.2836 23.9396 31.5037 23.758 30.2977 24.7399C29.7139 25.216 29.3502 25.8908 29.2737 26.6401C29.1971 27.3898 29.4172 28.1242 29.8932 28.708L36.391 36.6778L32.0261 41.0427C31.0495 40.398 30.1338 39.6518 29.299 38.8169C28.4757 37.9937 27.7365 37.0913 27.1016 36.1344C26.2132 34.7965 25.5224 33.3487 25.0485 31.8315C24.922 31.426 24.4906 31.1999 24.085 31.3266C23.6795 31.4532 23.4534 31.8846 23.5801 32.2901C23.9247 33.3933 24.3764 34.4615 24.9243 35.4837C22.2189 35.1822 19.5967 36.7944 18.6803 39.402L14.3203 51.7969L12.8051 53.3121C12.5047 53.6125 12.5047 54.0995 12.8051 54.3999L21.1799 62.7747C21.3301 62.9249 21.527 63 21.7238 63C21.9206 63 22.1175 62.9249 22.2677 62.7747L24.7194 60.323L26.8314 60.3621C26.8922 60.3632 26.9526 60.3637 27.0132 60.3637C30.8064 60.3635 34.2878 58.1695 35.9184 54.7345C36.1005 54.3507 35.9372 53.8919 35.5534 53.7097C35.1696 53.5276 34.7109 53.6911 34.5286 54.0748C33.1305 57.02 30.1197 58.8852 26.8598 58.8239L24.421 58.7788C24.2096 58.7746 24.0105 58.8562 23.8628 59.004L21.7238 61.143L14.4367 53.8559L15.5317 52.7609C15.6132 52.6794 15.6752 52.5808 15.7135 52.4723L20.1317 39.9118C20.8544 37.8555 23.0109 36.6356 25.1467 37.074L26.0009 37.25C26.6506 38.1933 27.3923 39.0853 28.2112 39.9043C29.0446 40.7376 29.9528 41.4896 30.918 42.1503L27.7897 45.2786C27.4893 45.579 27.4893 46.0661 27.7897 46.3664C28.0901 46.6668 28.5772 46.6668 28.8774 46.3664L37.6892 37.5546C38.2711 36.9727 39.0449 36.6523 39.8681 36.6523C40.6915 36.6523 41.4653 36.9728 42.0472 37.5548C42.6294 38.1369 42.95 38.9111 42.95 39.7339C42.9491 40.5577 42.6285 41.3315 42.0472 41.9128L35.7644 48.1965C35.638 48.323 35.5595 48.4896 35.5426 48.6677L35.2934 51.2921C35.293 51.2966 35.2926 51.3013 35.2922 51.3058C35.2911 51.3192 35.2895 51.3322 35.2879 51.3456L35.2866 51.3562C35.2383 51.7782 35.5416 52.1544 35.9635 52.203C35.9929 52.2063 36.0222 52.208 36.0511 52.208C36.437 52.208 36.7707 51.9144 36.816 51.522C36.8195 51.4917 36.8227 51.4622 36.8252 51.4317L37.0477 49.0886L40.7842 45.3515C40.9156 45.3544 41.047 45.3562 41.1781 45.3562C45.6397 45.356 49.7627 43.6777 52.8541 40.5865C56.0612 37.3799 57.7529 33.0459 57.6179 28.3829ZM37.5903 35.7139L31.0856 27.7357C30.8694 27.4705 30.7694 27.1369 30.8042 26.7962C30.839 26.4554 31.0044 26.1484 31.2695 25.9322C31.8177 25.4858 32.6271 25.5685 33.0736 26.1161L38.7759 33.1105C38.9395 33.3112 39.1931 33.4162 39.4506 33.3896C39.7081 33.3632 39.9352 33.2089 40.0546 32.9792L46.6983 20.1965C47.0243 19.5692 47.8 19.3238 48.4266 19.6493C48.7307 19.8075 48.955 20.0745 49.0583 20.401C49.1614 20.7274 49.1312 21.0743 48.973 21.3783L41.6504 35.4692C41.0934 35.2365 40.4903 35.1143 39.8684 35.1143C39.0565 35.1142 38.2772 35.3233 37.5903 35.7139Z" fill="#22328F"/>
    <path d="M37.9907 37.2704L32.4771 42.7839L35.8903 48.0348L42.1914 41.7337C44.3897 39.0359 41.1393 35.3287 38.1772 37.1553L37.9907 37.2704Z" fill="#DBE3FC"/>
    <path d="M65.0679 20.2711C65.3362 21.8806 63.96 23.2255 60.6362 23.2255C59.0045 23.2255 57.6818 21.9028 57.6818 20.2711C57.6818 18.6394 59.3739 17.3167 61.0055 17.3167C64.3293 17.3167 64.6986 18.0553 65.0679 20.2711Z" fill="#FFBA53"/>
    <path d="M48.7367 48.8225C48.8886 49.6807 48.1093 50.3978 46.2273 50.3978C45.3034 50.3978 44.5544 49.6925 44.5544 48.8225C44.5544 47.9525 45.5125 47.2472 46.4364 47.2472C48.3184 47.2472 48.5275 47.641 48.7367 48.8225Z" fill="#455DC7"/>
</svg>
