<svg width="59" height="54" viewBox="0 0 59 54" fill="none" xmlns="http://www.w3.org/2000/svg">
    <path d="M39.2004 51.5318C22.2928 57.3286 16.955 52.3348 6.53839 42.5897C-3.87821 32.8445 -0.90063 13.7438 8.80938 3.36476C18.5194 -7.01427 41.4975 9.04205 51.9141 18.7872C64.7395 30.7859 51.6973 47.2471 39.2004 51.5318Z" fill="#DBE3FC"/>
    <path d="M32.0079 7.99974C31.5689 7.95037 31.1731 8.26611 31.1237 8.7049C31.0743 9.1438 31.3901 9.53973 31.829 9.5891C39.8639 10.494 45.923 17.2834 45.923 25.3819C45.923 34.1456 38.7932 41.2753 30.0295 41.2753C21.2659 41.2753 14.1361 34.1456 14.1361 25.3819C14.1361 17.2939 20.1864 10.5055 28.2097 9.59144C28.6484 9.54143 28.9638 9.14519 28.9137 8.70629C28.8637 8.26739 28.4679 7.95165 28.0286 8.00219C19.1968 9.00848 12.5366 16.48 12.5366 25.3819C12.5366 35.0275 20.3839 42.8748 30.0295 42.8748C39.6752 42.8748 47.5225 35.0275 47.5225 25.3819C47.5225 16.4685 40.8526 8.99579 32.0079 7.99974Z" fill="#22328F"/>
    <path d="M49.6888 32.5147C49.3019 31.278 49.6679 29.9119 50.6213 29.0344C51.6397 28.0972 52.2238 26.7659 52.2238 25.3819C52.2238 23.9979 51.6397 22.6666 50.6214 21.7294C49.6679 20.8519 49.3019 19.4858 49.6888 18.249C50.1021 16.9282 49.9423 15.4832 49.2504 14.2847C48.5584 13.0861 47.3868 12.2252 46.0363 11.9227C44.7719 11.6395 43.7718 10.6394 43.4886 9.37498C43.1862 8.02448 42.3252 6.85302 41.1267 6.16098C39.9281 5.46893 38.4832 5.30909 37.1623 5.72251C35.9256 6.10947 34.5595 5.7434 33.6819 4.79C32.7447 3.77167 31.4134 3.18753 30.0294 3.18753C28.6455 3.18753 27.3142 3.77167 26.377 4.7899C25.4995 5.7434 24.1335 6.10947 22.8966 5.72251C21.5757 5.3092 20.1308 5.46893 18.9322 6.16098C17.7337 6.85291 16.8727 8.02448 16.5703 9.37498C16.2871 10.6394 15.287 11.6395 14.0225 11.9227C12.672 12.2252 11.5006 13.0861 10.8085 14.2847C10.1165 15.4832 9.95675 16.9282 10.3701 18.249C10.757 19.4858 10.391 20.8518 9.43756 21.7294C8.41922 22.6666 7.83509 23.9979 7.83509 25.3819C7.83509 26.7659 8.41922 28.0972 9.43745 29.0344C10.391 29.9118 10.757 31.278 10.3701 32.5147C9.95675 33.8356 10.1166 35.2806 10.8085 36.4791C11.5005 37.6777 12.672 38.5386 14.0225 38.841C15.287 39.1242 16.2871 40.1243 16.5703 41.3888C16.8727 42.7393 17.7337 43.9107 18.9322 44.6028C20.1309 45.2947 21.5757 45.4547 22.8966 45.0413C24.1336 44.6544 25.4995 45.0204 26.377 45.9738C27.3142 46.9921 28.6455 47.5762 30.0294 47.5762C31.4134 47.5762 32.7447 46.9921 33.6819 45.9739C34.5595 45.0204 35.9257 44.6543 37.1623 45.0413C38.4829 45.4545 39.9281 45.2947 41.1267 44.6028C42.3252 43.9109 43.1862 42.7393 43.4886 41.3888C43.7718 40.1243 44.7719 39.1242 46.0363 38.841C47.3868 38.5386 48.5583 37.6777 49.2504 36.4791C49.9424 35.2806 50.1021 33.8356 49.6888 32.5147ZM48.1624 32.9924C48.4467 33.9008 48.3411 34.8551 47.8652 35.6794C47.3893 36.5036 46.6157 37.0722 45.6868 37.2802C43.8212 37.6981 42.3457 39.1736 41.9278 41.0392C41.7198 41.968 41.1513 42.7416 40.3269 43.2176C39.5026 43.6935 38.5483 43.799 37.64 43.5148C35.8152 42.9437 33.7997 43.4839 32.5051 44.8907C31.8605 45.5911 30.9813 45.9769 30.0295 45.9769C29.0777 45.9769 28.1986 45.5912 27.554 44.8907C26.6019 43.8563 25.26 43.2905 23.8909 43.2905C23.3982 43.2905 22.9019 43.3638 22.4191 43.5148C21.5108 43.7989 20.5564 43.6934 19.7322 43.2176C18.9079 42.7417 18.3393 41.9681 18.1313 41.0392C17.7134 39.1736 16.2379 37.6981 14.3723 37.2802C13.4435 37.0722 12.6699 36.5037 12.1939 35.6794C11.718 34.8551 11.6124 33.9008 11.8967 32.9924C12.4676 31.1679 11.9276 29.1523 10.5208 27.8576C9.82047 27.213 9.43468 26.3338 9.43468 25.382C9.43468 24.4302 9.82037 23.551 10.5208 22.9064C11.9275 21.6117 12.4676 19.5961 11.8967 17.7715C11.6124 16.8631 11.718 15.9089 12.1939 15.0846C12.6698 14.2603 13.4434 13.6918 14.3723 13.4837C16.2379 13.0658 17.7134 11.5904 18.1313 9.72474C18.3393 8.79597 18.9078 8.02235 19.7322 7.54634C20.5565 7.07034 21.5109 6.96488 22.4191 7.24916C24.2436 7.82007 26.2592 7.27998 27.554 5.87328C28.1986 5.17292 29.0777 4.78713 30.0295 4.78713C30.9813 4.78713 31.8605 5.17282 32.5051 5.87328C33.8 7.27998 35.8154 7.82007 37.64 7.24916C38.5482 6.96488 39.5026 7.07034 40.3269 7.54634C41.1512 8.02224 41.7198 8.79586 41.9278 9.72474C42.3457 11.5904 43.8212 13.0658 45.6868 13.4837C46.6156 13.6918 47.3892 14.2602 47.8652 15.0846C48.3411 15.9089 48.4467 16.8631 48.1624 17.7715C47.5915 19.5961 48.1315 21.6117 49.5383 22.9064C50.2386 23.551 50.6244 24.4302 50.6244 25.382C50.6244 26.3338 50.2387 27.213 49.5383 27.8576C48.1315 29.1523 47.5914 31.1679 48.1624 32.9924Z" fill="#22328F"/>
    <path d="M33.4726 27.9699C33.1603 28.2822 33.1603 28.7886 33.4726 29.1008C33.7849 29.4131 34.2913 29.4131 34.6035 29.1008L41.1658 22.5385C41.6338 22.0705 41.8915 21.4484 41.8915 20.7866C41.8915 20.1247 41.6338 19.5026 41.1658 19.0347L39.1034 16.9722C38.1373 16.0063 36.5656 16.0063 35.5996 16.9722L27.4684 25.1034L24.6237 22.2585C24.1557 21.7905 23.5336 21.5328 22.8717 21.5328C22.2099 21.5328 21.5878 21.7905 21.1198 22.2585L18.8932 24.4851C18.4252 24.9531 18.1674 25.5752 18.1674 26.2371C18.1674 26.8989 18.4252 27.521 18.8932 27.9889L24.5979 33.6938C25.344 34.4399 26.3241 34.813 27.3041 34.813C28.2842 34.813 29.2642 34.4399 30.0104 33.6938L31.9769 31.7273C32.2892 31.4149 32.2892 30.9085 31.9769 30.5963C31.6645 30.284 31.1581 30.284 30.8459 30.5963L28.8794 32.5628C28.0108 33.4313 26.5974 33.4313 25.7288 32.5628L20.0241 26.858C19.8582 26.6922 19.7669 26.4717 19.7669 26.2372C19.7669 26.0026 19.8583 25.7821 20.0241 25.6163L22.2507 23.3897C22.4166 23.2239 22.6371 23.1325 22.8716 23.1325C23.1061 23.1325 23.3266 23.2238 23.4926 23.3897L26.9029 26.8C27.2152 27.1123 27.7216 27.1123 28.0338 26.8L36.7305 18.1034C37.0728 17.7611 37.63 17.761 37.9724 18.1034L40.0348 20.1659C40.2007 20.3317 40.292 20.5522 40.292 20.7867C40.292 21.0212 40.2006 21.2418 40.0348 21.4076L33.4726 27.9699Z" fill="#22328F"/>
    <path d="M6.60518 7.75244C7.76071 7.80733 7.01807 9.95012 5.00924 11.1626C4.02307 11.7578 2.73896 11.4373 2.14111 10.4468C1.54326 9.45625 0.465506 8.39953 1.45168 7.80431C3.46051 6.59186 3.78646 7.61857 6.60518 7.75244Z" fill="#3246AB"/>
    <path d="M11.693 44.4768C11.9719 46.1502 10.541 47.5486 7.08519 47.5486C5.38866 47.5486 4.01334 46.1733 4.01334 44.4768C4.01334 42.7802 5.77264 41.4049 7.46917 41.4049C10.925 41.4049 11.309 42.1729 11.693 44.4768Z" fill="#FFBA53"/>
    <path d="M55.4161 33.2639C54.7847 33.0901 55.4609 31.9988 56.721 31.5786C57.3396 31.3723 58.009 31.7087 58.2162 32.33C58.4234 32.9513 58.8875 33.6688 58.2689 33.8751C57.0088 34.2953 56.9563 33.6878 55.4161 33.2639Z" fill="#3246AB"/>
</svg>
