<svg width="131" height="116" viewBox="0 0 131 116" fill="none" xmlns="http://www.w3.org/2000/svg">
    <circle opacity="0.745489" cx="65.5" cy="58" r="58" fill="#F4F8FD"/>
    <path d="M98.3417 38.4962L89.0598 34.3121C88.7566 34.1761 88.5142 33.9308 88.3795 33.6238L84.2508 24.2212L74.1465 25.2913C73.8198 25.3228 73.4929 25.2325 73.2272 25.0373L64.9975 19L56.772 25.039C56.5062 25.234 56.1794 25.3243 55.8526 25.293L45.7442 24.2212L41.6155 33.6238C41.4815 33.9308 41.2392 34.176 40.936 34.3113L31.6541 38.4962L32.7088 48.7294C32.7419 49.0621 32.6526 49.3955 32.4581 49.6658L26.5 57.9983L32.4615 66.3308C32.6559 66.6011 32.7451 66.9345 32.7122 67.2672L31.6541 77.5021L40.936 81.6845C41.239 81.8209 41.4812 82.0665 41.6155 82.3736L45.7442 91.7763L55.8493 90.7095C55.8944 90.7095 55.9412 90.7019 55.983 90.7019C56.2652 90.702 56.5401 90.793 56.7678 90.9618L64.9983 97L73.2239 90.9618C73.4891 90.7657 73.8163 90.6753 74.1432 90.7078L84.2508 91.7763L88.3795 82.3736C88.5143 82.067 88.7568 81.822 89.0598 81.6862L98.3417 77.5021L97.2887 67.2681C97.2552 66.9353 97.3445 66.6017 97.5394 66.3317L103.5 57.9992L97.5394 49.6666C97.3445 49.3966 97.2552 49.063 97.2887 48.7303L98.3417 38.4962Z" fill="#4982DD"/>
    <path fill-rule="evenodd" clip-rule="evenodd" d="M72.0002 52.5835H75.4452C77.3735 52.5835 78.3268 54.9235 76.9618 56.2885L67.0168 66.2335C66.1718 67.0785 64.8068 67.0785 63.9618 66.2335L54.0168 56.2885C52.6518 54.9235 53.6268 52.5835 55.5552 52.5835H59.0002V41.7502C59.0002 40.5585 59.9752 39.5835 61.1668 39.5835H69.8335C71.0252 39.5835 72.0002 40.5585 72.0002 41.7502V52.5835ZM52.5002 76.4168C51.3085 76.4168 50.3335 75.4418 50.3335 74.2502C50.3335 73.0585 51.3085 72.0835 52.5002 72.0835H78.5002C79.6918 72.0835 80.6668 73.0585 80.6668 74.2502C80.6668 75.4418 79.6918 76.4168 78.5002 76.4168H52.5002Z" fill="white"/>
    <path d="M118.625 10.1637L120.458 10.8401C121.943 11.3876 123.113 12.5581 123.66 14.0429L124.336 15.8766C124.358 15.9497 124.425 16 124.501 16C124.577 16 124.644 15.9497 124.665 15.8766L125.342 14.0429C125.89 12.5591 127.06 11.3896 128.543 10.8427L130.377 10.1663C130.45 10.145 130.5 10.0779 130.5 10.0017C130.5 9.92551 130.45 9.85846 130.377 9.83712L128.543 9.16074C127.058 8.61322 125.888 7.44278 125.341 5.95799L124.665 4.12345C124.643 4.05029 124.576 4 124.5 4C124.424 4 124.357 4.05029 124.335 4.12345L123.659 5.95799C123.112 7.44278 121.942 8.61322 120.457 9.16074L118.623 9.83712C118.55 9.85846 118.5 9.92551 118.5 10.0017C118.5 10.0779 118.55 10.145 118.623 10.1663L118.625 10.1637Z" fill="#F7B75C"/>
    <path d="M116.552 19.0807L117.472 19.4201C118.216 19.6947 118.803 20.282 119.078 21.0269L119.417 21.9469C119.432 21.9792 119.464 22 119.5 22C119.535 22 119.567 21.9792 119.582 21.9469L119.921 21.0269C120.196 20.282 120.783 19.6948 121.527 19.4201L122.447 19.0807C122.479 19.066 122.5 19.0337 122.5 18.9982C122.5 18.9626 122.479 18.9304 122.447 18.9156L121.527 18.5763C120.783 18.3016 120.196 17.7144 119.921 16.9695L119.583 16.0531C119.568 16.0208 119.536 16 119.5 16C119.465 16 119.433 16.0208 119.418 16.0531L119.079 16.9731C118.804 17.7181 118.217 18.3054 117.473 18.5799L116.553 18.9193C116.521 18.934 116.5 18.9663 116.5 19.0018C116.5 19.0374 116.521 19.0696 116.553 19.0844L116.552 19.0807Z" fill="#F7B75C"/>
    <path d="M12.3766 107.835L10.5431 107.159C9.05857 106.611 7.8883 105.441 7.34086 103.957L6.66457 102.123C6.64324 102.05 6.57619 102 6.5 102C6.42381 102 6.35676 102.05 6.33543 102.123L5.65914 103.957C5.1117 105.441 3.94143 106.611 2.45686 107.159L0.623429 107.835C0.550286 107.856 0.5 107.923 0.5 108C0.5 108.076 0.550286 108.143 0.623429 108.164L2.45771 108.84C3.94229 109.388 5.11256 110.558 5.66 112.042L6.33629 113.877C6.35762 113.95 6.42467 114 6.50086 114C6.57705 114 6.6441 113.95 6.66543 113.877L7.34171 112.042C7.88962 110.56 9.05908 109.391 10.5423 108.844L12.3766 108.168C12.4497 108.146 12.5 108.079 12.5 108.003C12.5 107.927 12.4497 107.86 12.3766 107.838V107.835Z" fill="#F7B75C"/>
    <path d="M14.446 99.9175L13.5266 99.5784C12.7821 99.3039 12.1952 98.717 11.9207 97.9725L11.5825 97.0531C11.5678 97.0207 11.5355 97 11.5 97C11.4645 97 11.4322 97.0207 11.4175 97.0531L11.0784 97.9725C10.8038 98.7169 10.2169 99.3038 9.47252 99.5784L8.55308 99.9175C8.52075 99.9322 8.5 99.9645 8.5 100C8.5 100.036 8.52075 100.068 8.55308 100.083L9.47252 100.422C10.217 100.696 10.8039 101.283 11.0784 102.027L11.4175 102.947C11.4322 102.979 11.4645 103 11.5 103C11.5355 103 11.5678 102.979 11.5825 102.947L11.9216 102.027C12.196 101.283 12.7829 100.696 13.5275 100.422L14.4469 100.083C14.4793 100.068 14.5 100.036 14.5 100C14.5 99.9645 14.4793 99.9322 14.4469 99.9175H14.446Z" fill="#F7B75C"/>
</svg>
