<svg width="72" height="72" viewBox="0 0 72 72" fill="none" xmlns="http://www.w3.org/2000/svg">
    <path d="M63.3171 49.9589C56.388 63 50.3487 63 38.5632 63C26.7776 63 17.7926 49.7949 17.7926 38.0519C17.7926 26.3088 40.7195 23.0262 52.505 23.0262C67.016 23.0262 68.4386 40.3199 63.3171 49.9589Z" fill="#DBE3FC"/>
    <path d="M5.90866 15.5742C8.64082 9.51818 11.3448 9.34736 16.6215 9.014C21.8983 8.68065 26.296 14.3602 26.6293 19.637C26.9627 24.9137 16.7908 27.0372 11.5141 27.3706C5.01711 27.781 3.88923 20.0504 5.90866 15.5742Z" fill="#DBE3FC"/>
    <path d="M37.4398 17.2279H24.4157C23.9855 17.2279 23.6368 17.5767 23.6368 18.0069C23.6368 18.4371 23.9855 18.7858 24.4157 18.7858H37.4398C37.8701 18.7858 38.2188 18.4371 38.2188 18.0069C38.2188 17.5767 37.8701 17.2279 37.4398 17.2279Z" fill="#22328F"/>
    <path d="M13.596 18.9426C14.1128 18.9426 14.5319 18.5236 14.5319 18.0067C14.5319 17.4898 14.1128 17.0708 13.596 17.0708C13.0791 17.0708 12.6601 17.4898 12.6601 18.0067C12.6601 18.5236 13.0791 18.9426 13.596 18.9426Z" fill="#22328F"/>
    <path d="M17.2027 18.9426C17.7196 18.9426 18.1386 18.5236 18.1386 18.0067C18.1386 17.4898 17.7196 17.0708 17.2027 17.0708C16.6858 17.0708 16.2668 17.4898 16.2668 18.0067C16.2668 18.5236 16.6858 18.9426 17.2027 18.9426Z" fill="#22328F"/>
    <path d="M20.6082 18.9426C21.1251 18.9426 21.5441 18.5236 21.5441 18.0067C21.5441 17.4898 21.1251 17.0708 20.6082 17.0708C20.0913 17.0708 19.6723 17.4898 19.6723 18.0067C19.6723 18.5236 20.0913 18.9426 20.6082 18.9426Z" fill="#22328F"/>
    <path d="M49.7627 18.9426C50.2796 18.9426 50.6986 18.5236 50.6986 18.0067C50.6986 17.4898 50.2796 17.0708 49.7627 17.0708C49.2458 17.0708 48.8268 17.4898 48.8268 18.0067C48.8268 18.5236 49.2458 18.9426 49.7627 18.9426Z" fill="#22328F"/>
    <path d="M32.2519 27.3642H58.4148V54.4294H32.2519V27.3642Z" fill="#90A5EE"/>
    <path d="M55.5227 25.9367H54.3487V17.3582C54.3487 15.2977 52.6722 13.6213 50.6116 13.6213H12.6466C10.586 13.6213 8.90955 15.2977 8.90955 17.3582V47.5089C8.90955 49.5694 10.586 51.2458 12.6466 51.2458H30.8533C30.917 53.4773 32.7508 55.2732 34.9974 55.2732H55.5227C57.8094 55.2732 59.6699 53.4127 59.6699 51.126V30.0839C59.6699 27.7971 57.8094 25.9367 55.5227 25.9367ZM18.5153 49.6879H12.6466C11.445 49.688 10.4675 48.7105 10.4675 47.509V41.2709C11.5797 39.8717 13.2823 39.0418 15.0729 39.0418C18.3159 39.0418 20.9541 41.6802 20.9541 44.9231C20.9541 46.8177 20.0455 48.5811 18.5153 49.6879ZM25.0838 47.773C24.8967 48.432 24.642 49.0748 24.3253 49.6882H20.7864C21.8889 48.3677 22.512 46.6899 22.512 44.9232C22.512 40.8212 19.1748 37.484 15.0729 37.484C13.3897 37.484 11.7671 38.0622 10.4675 39.0853V35.5909C11.037 35.3088 11.6298 35.0801 12.2348 34.909C12.5357 34.8239 12.7566 34.5672 12.7957 34.2568L12.9674 32.8945C13.0042 32.6022 13.2542 32.3817 13.549 32.3817H16.61C16.9051 32.3817 17.1552 32.6025 17.1917 32.8953L17.3622 34.2595C17.4011 34.5697 17.6216 34.8268 17.9224 34.9123C18.6905 35.1305 19.4366 35.4402 20.1396 35.833C20.4126 35.9856 20.7502 35.9601 20.9971 35.7684L22.0847 34.9243C22.3174 34.7437 22.6502 34.7644 22.8587 34.9728L25.0233 37.1374C25.2319 37.346 25.2526 37.679 25.0715 37.9119L24.2275 38.9969C24.0352 39.244 24.0098 39.5819 24.1623 39.8552C24.5572 40.5617 24.8682 41.312 25.0869 42.0852C25.172 42.3861 25.4289 42.607 25.7391 42.6461L27.1012 42.8178C27.3936 42.8547 27.6142 43.1048 27.6142 43.3996V46.4606C27.6142 46.7557 27.3934 47.0058 27.1007 47.0424L25.7365 47.2128C25.4263 47.2516 25.1691 47.4722 25.0838 47.773ZM58.112 51.1261C58.112 52.5539 56.9504 53.7154 55.5227 53.7154H34.9974C33.5697 53.7154 32.4081 52.5539 32.4081 51.1261V47.9606C32.4081 47.5304 32.0594 47.1816 31.6292 47.1816C31.1989 47.1816 30.8502 47.5304 30.8502 47.9606V49.6879H26.0473C26.189 49.3624 26.3176 49.0318 26.4292 48.696L27.294 48.5879C28.3647 48.4541 29.1722 47.5394 29.1722 46.4603V43.3993C29.1722 42.3213 28.3657 41.4067 27.2963 41.2719L26.4334 41.1631C26.2512 40.613 26.0282 40.0751 25.7667 39.5553L26.3012 38.8681C26.9639 38.0163 26.8879 36.7984 26.1249 36.0354L23.9604 33.8709C23.1981 33.1087 21.981 33.0324 21.1296 33.6932L20.4397 34.2287C19.9241 33.9694 19.391 33.748 18.8458 33.5667L18.7377 32.702C18.6041 31.6312 17.6894 30.8236 16.6101 30.8236H13.5491C12.4711 30.8236 11.5565 31.6301 11.4218 32.6996L11.313 33.5627C11.0278 33.6572 10.7457 33.7636 10.4675 33.88V22.2923H14.5317C14.9619 22.2923 15.3106 21.9435 15.3106 21.5133C15.3106 21.0832 14.9619 20.7344 14.5317 20.7344H10.4675V17.3582C10.4675 16.1567 11.445 15.1792 12.6466 15.1792H50.6117C51.8133 15.1792 52.7909 16.1567 52.7909 17.3582V20.7344H19.0409C18.6106 20.7344 18.2619 21.0832 18.2619 21.5133C18.2619 21.9435 18.6106 22.2923 19.0409 22.2923H52.7908V25.9366H34.9974C32.7107 25.9366 30.8502 27.7971 30.8502 30.0838V43.5983C30.8502 44.0285 31.1989 44.3773 31.6292 44.3773C32.0594 44.3773 32.4081 44.0285 32.4081 43.5983V30.0839C32.4081 28.6562 33.5697 27.4946 34.9974 27.4946H55.5227C56.9504 27.4946 58.112 28.6562 58.112 30.0839V51.1261Z" fill="#22328F"/>
    <path d="M54.1021 46.1183L46.889 33.278C46.6128 32.7863 46.0919 32.4815 45.5283 32.4815C45.526 32.4815 45.5238 32.4815 45.5215 32.4816C44.9552 32.484 44.4338 32.7936 44.1608 33.2897L37.092 46.1301C36.8232 46.6186 36.832 47.1969 37.1156 47.6769C37.3994 48.1569 37.9018 48.4436 38.4594 48.4436H52.7413C53.3017 48.4436 53.8054 48.1548 54.0884 47.6711C54.3715 47.1874 54.3765 46.6068 54.1021 46.1183ZM38.4595 46.8856L38.4568 46.8813L45.5306 34.0408L52.7414 46.8856H38.4595Z" fill="#22328F"/>
    <path d="M46.2187 44.026C46.0666 43.8642 45.8862 43.7832 45.677 43.7832C45.4292 43.7832 45.2226 43.8625 45.0574 44.0208C44.8924 44.1791 44.8098 44.371 44.8098 44.5963C44.8098 44.8146 44.8943 45.0047 45.0633 45.1665C45.2322 45.3285 45.4369 45.4094 45.677 45.4094C45.8863 45.4094 46.0667 45.3286 46.2187 45.1665C46.3704 45.0047 46.4465 44.8146 46.4465 44.5963C46.4465 44.3782 46.3705 44.1881 46.2187 44.026Z" fill="#22328F"/>
    <path d="M46.1864 37.8015C46.0482 37.6854 45.8745 37.6273 45.6657 37.6273C45.4248 37.6273 45.2271 37.6854 45.0728 37.8015C44.9185 37.9176 44.8415 38.0744 44.8415 38.2714C44.8415 38.6937 44.8661 39.4154 44.9154 40.436C44.9646 41.4568 44.9893 42.1749 44.9893 42.5901C44.9893 42.8999 45.2147 43.0547 45.6657 43.0547C45.826 43.0547 45.977 43.0143 46.1185 42.9333C46.2596 42.8525 46.3304 42.738 46.3304 42.5902C46.3304 42.175 46.3409 41.4569 46.3621 40.4361C46.3832 39.4156 46.3937 38.6938 46.3937 38.2715C46.3937 38.0745 46.3246 37.9177 46.1864 37.8015Z" fill="#22328F"/>
    <path d="M10.8967 53.8864C11.6907 54.4186 10.2505 55.6172 8.31189 55.6172C7.36019 55.6172 6.58868 54.8423 6.58868 53.8864C6.58868 52.9305 6.27747 51.7229 7.22918 51.7229C9.16779 51.7229 8.96002 52.5883 10.8967 53.8864Z" fill="#3246AB"/>
    <path d="M64.3088 19.0762C64.5392 20.4588 63.357 21.6142 60.5018 21.6142C59.1001 21.6142 57.9638 20.4779 57.9638 19.0762C57.9638 17.6745 59.4173 16.5382 60.819 16.5382C63.6743 16.5382 63.9915 17.1727 64.3088 19.0762Z" fill="#FFBA53"/>
</svg>
