<svg width="60" height="60" viewBox="0 0 60 60" fill="none" xmlns="http://www.w3.org/2000/svg">
    <circle cx="30" cy="30" r="30" fill="#FFF4F5"/>
    <path fill-rule="evenodd" clip-rule="evenodd" d="M30.48 10C19.44 10 10.5 18.96 10.5 30C10.5 41.04 19.44 50 30.48 50C41.54 50 50.5 41.04 50.5 30C50.5 18.96 41.54 10 30.48 10ZM32.5 32V20H28.5V32H32.5ZM32.5 40V36H28.5V40H32.5ZM14.5 30C14.5 38.84 21.66 46 30.5 46C39.34 46 46.5 38.84 46.5 30C46.5 21.16 39.34 14 30.5 14C21.66 14 14.5 21.16 14.5 30Z" fill="#EB373E"/>
</svg>
