<svg width="140" height="140" viewBox="0 0 140 140" fill="none" xmlns="http://www.w3.org/2000/svg">
    <path d="M19.184 60.6528C37.1735 38.6074 48.5987 40.8705 70.8947 45.2868C93.1908 49.7031 105.246 78.0217 100.851 100.211C96.4561 122.4 51.8542 120.011 29.5581 115.595C2.10617 110.157 5.88737 76.9471 19.184 60.6528Z" fill="#DBE3FC"/>
    <path d="M88.4986 29.8456C94.5555 16.4202 100.55 16.0415 112.248 15.3025C123.946 14.5635 133.695 27.1544 134.434 38.8522C135.173 50.5501 112.623 55.2577 100.925 55.9967C86.5222 56.9066 84.0218 39.7687 88.4986 29.8456Z" fill="#DBE3FC"/>
    <path d="M128.066 65.6264C128.577 68.6916 125.956 71.2529 119.626 71.2529C116.519 71.2529 114 68.7338 114 65.6264C114 62.519 117.222 60 120.33 60C126.66 60 127.363 61.4066 128.066 65.6264Z" fill="#FFBA53"/>
    <path d="M18.6582 16.7963C20.4183 17.976 17.2257 20.6333 12.928 20.6333C10.8182 20.6333 9.10786 18.9154 9.10786 16.7963C9.10786 14.6771 8.41796 12 10.5278 12C14.8254 12 14.3648 13.9185 18.6582 16.7963Z" fill="#3246AB"/>
    <circle cx="96" cy="89" r="20" fill="#455DC7"/>
    <path d="M18.5 89.5L17.5 35C18.3333 34.1667 20.5 32.5 22.5 32.5C25 32.5 24.5 28.5 24.5 26C24.5 24 25.5 23.1667 26 23L47 23.5L51 31H91L83.5 40L42.5 39L39 40.5L30 90C28.8333 91.1667 25.8 93.5 23 93.5C20.2 93.5 18.8333 90.8333 18.5 89.5Z" fill="#455DC7"/>
    <path d="M105.887 70.418L110.516 43.4648C110.535 43.3867 110.535 43.3086 110.535 43.2109C110.535 40.5156 108.328 38.3086 105.633 38.3086H97.5469L107.508 25.6523C108.777 24.0313 109.012 21.8633 108.113 20.0078C107.215 18.1523 105.359 17 103.289 17C101.629 17 100.105 17.7422 99.0703 19.0508L90.125 30.3984C90.1055 30.3984 90.1055 30.3984 90.0859 30.3984H72.4297L69.9492 24.168C69.3438 22.625 67.8789 21.6094 66.1992 21.6094H27.293C25.0664 21.6094 23.25 23.4258 23.25 25.6523V29.2852C23.25 29.8906 22.7422 30.3984 22.1367 30.3984H21.9023C19.207 30.3984 17 32.6055 17 35.3008V88.0742C17 92.0586 20.2422 95.3008 24.2266 95.3008H39.0898L35.3789 100.027C34.1094 101.648 33.875 103.816 34.7734 105.672C35.6719 107.527 37.5273 108.68 39.5977 108.68C41.2578 108.68 42.7812 107.938 43.8164 106.629L52.7422 95.2812H76.1406C76.7461 97.1562 77.6055 98.9336 78.7188 100.574C79.168 101.238 80.0859 101.414 80.75 100.965C81.4141 100.516 81.5898 99.5977 81.1406 98.9336C79.1289 95.9648 78.0742 92.4688 78.0742 88.8555C78.0742 78.9141 86.1602 70.8477 96.082 70.8477C106.023 70.8477 114.09 78.9336 114.09 88.8555C114.09 98.7773 106.004 106.863 96.082 106.863C92.2344 106.863 88.5625 105.672 85.457 103.406C84.8125 102.938 83.8945 103.074 83.4062 103.719C82.9375 104.363 83.0742 105.281 83.7188 105.77C87.3125 108.406 91.5898 109.793 96.0625 109.793C107.605 109.793 117 100.398 117 88.8555C117 80.9062 112.488 73.9336 105.887 70.418ZM66.1992 24.5391C66.668 24.5391 67.0586 24.8125 67.2344 25.2422L69.2852 30.3984H52.4883C52.0195 30.3984 51.6289 30.125 51.4531 29.6953L49.4219 24.5391H66.1992ZM28.1328 89.5781C27.3125 91.4922 26.082 92.3711 24.2266 92.3711C21.8633 92.3711 19.9297 90.4375 19.9297 88.0742V35.3008C19.9297 34.207 20.8086 33.3281 21.9023 33.3281H22.1367C24.3633 33.3281 26.1797 31.5117 26.1797 29.2852V25.6523C26.1797 25.0469 26.6875 24.5391 27.293 24.5391H45.5156C45.9844 24.5391 46.375 24.8125 46.5508 25.2422L48.7383 30.7891C49.3438 32.332 50.8281 33.3477 52.4883 33.3477H87.8203L83.9141 38.3281H41.5312C39.0508 38.3281 36.9414 40.1836 36.668 42.6641L28.6211 87.8789C28.5039 88.5234 28.3477 89.0703 28.1328 89.5781ZM41.5117 104.852C41.043 105.438 40.3594 105.789 39.5977 105.789C38.6406 105.789 37.8203 105.281 37.4102 104.422C37 103.562 37.0977 102.605 37.6836 101.863L76.0039 53.1328C76.5117 52.4883 76.3945 51.5703 75.75 51.082C75.1055 50.5742 74.1875 50.6914 73.6992 51.3359L41.3945 92.3906H29.9297C30.2617 91.9023 30.5742 91.3555 30.8281 90.7305C31.1406 90.0273 31.3555 89.2461 31.5117 88.3867L39.5781 42.9766C39.6953 41.9805 40.5352 41.2383 41.5508 41.2383H81.6289L77.9375 45.9258C77.4297 46.5703 77.5469 47.4883 78.1914 47.9766C78.8359 48.4844 79.7539 48.3672 80.2422 47.7227L101.375 20.8281C101.844 20.2422 102.527 19.8906 103.289 19.8906C104.246 19.8906 105.066 20.3984 105.477 21.2578C105.887 22.1172 105.789 23.0742 105.203 23.8164L41.5117 104.852ZM96.0625 67.957C84.5195 67.957 75.125 77.3516 75.125 88.8945C75.125 90.0664 75.2227 91.2383 75.418 92.3906H55.0273L95.2422 41.2383H105.633C106.688 41.2383 107.547 42.0586 107.605 43.1133L103.133 69.1875C100.926 68.3867 98.543 67.957 96.0625 67.957Z" fill="#22328F"/>
    <path d="M87.0779 95.1837C87.8787 95.1837 88.5428 94.5196 88.5428 93.7188V92.1758C89.2654 92.0977 89.8318 91.4727 89.8318 90.7305C89.8318 89.9688 89.2654 89.3633 88.5428 89.2852C88.5428 89.2852 88.5428 84.1876 88.5428 84.1485C88.4646 83.211 87.8982 82.4297 87.0779 82.1954C86.2771 81.9415 85.4178 82.254 84.7928 82.9961C84.2068 83.6993 81.7459 88.1524 80.7107 90.0274C80.4568 90.4766 80.4764 91.0235 80.7303 91.4727C80.9842 91.9219 81.4725 92.1954 81.9803 92.1954H85.6131V93.7383C85.6131 94.5391 86.2771 95.1837 87.0779 95.1837ZM84.4803 89.2657C84.8709 88.5626 85.2615 87.879 85.6131 87.254V89.2657H84.4803Z" fill="#F3F6FE"/>
    <path d="M108.836 95.1837C109.637 95.1837 110.301 94.5196 110.301 93.7188V92.1758C111.023 92.0977 111.59 91.4727 111.59 90.7305C111.59 89.9688 111.023 89.3633 110.301 89.2852C110.301 89.2852 110.301 84.1876 110.301 84.1485C110.222 83.211 109.656 82.4297 108.836 82.1954C108.035 81.9415 107.176 82.254 106.551 82.9961C105.965 83.6993 103.504 88.1524 102.469 90.0274C102.215 90.4766 102.234 91.0235 102.488 91.4727C102.742 91.9219 103.23 92.1954 103.738 92.1954H107.371V93.7383C107.371 94.5391 108.015 95.1837 108.836 95.1837ZM106.238 89.2657C106.629 88.5626 107.019 87.879 107.371 87.254V89.2657H106.238Z" fill="#F3F6FE"/>
    <path d="M100.535 91.2969V86.5898C100.535 84.168 98.5625 82.1953 96.1406 82.1953C93.7188 82.1953 91.7461 84.168 91.7461 86.5898V91.2969C91.7461 93.7188 93.7188 95.6914 96.1406 95.6914C98.543 95.6914 100.535 93.7188 100.535 91.2969ZM94.6562 91.2969V86.5898C94.6562 85.7695 95.3203 85.1055 96.1406 85.1055C96.9609 85.1055 97.625 85.7695 97.625 86.5898V91.2969C97.625 92.1172 96.9609 92.7812 96.1406 92.7812C95.3008 92.7617 94.6562 92.1172 94.6562 91.2969Z" fill="#F3F6FE"/>
</svg>
